# xmcd
#
# Track frame offsets:
#	150
#	12248
#	25133
#	38251
#	50469
#	62619
#	75557
#	86267
#	102010
#	113635
#	126070
#	139548
#
# Disc length: 2022 seconds
#
# Revision: 0
# Processed by: cddbd v1.5.2PL0 Copyright (c) Steve Scherf et al.
# Submitted via: audiograbber 1.83.01
#
DISCID=7e07e40c
DTITLE=Hank Williams - The Bery Best Of
DYEAR=1963
DGENRE=Country
TTITLE0=Your Cheatin' Heart
TTITLE1=Jambalaya
TTITLE2=Lovesick Blues
TTITLE3=Half As Much
TTITLE4=Cold Cold Heart
TTITLE5=Hey, Good Lookin'
TTITLE6=Why Don't You Love Me
TTITLE7=Weddin' Bells
TTITLE8=Kaw-Liga
TTITLE9=So Lonesome I Could Cry
TTITLE10=Ramblin' Man
TTITLE11=Honky Tonkin'
EXTD=This CD was created from one of my LP's\n
EXTT0=
EXTT1=
EXTT2=
EXTT3=
EXTT4=
EXTT5=
EXTT6=
EXTT7=
EXTT8=
EXTT9=
EXTT10=
EXTT11=
PLAYORDER=
